Coordinates
version=1
nRows=16
nColumns=63
inDegrees=yes

Units are S.I. units (second, meters, Newtons, ...)
If the header above contains a line with 'inDegrees', this indicates whether rotational values are in degrees (yes) or radians (no).

endheader
time	pelvis_tilt	pelvis_list	pelvis_rotation	pelvis_tx	pelvis_ty	pelvis_tz	hip_flexion_r	hip_adduction_r	hip_rotation_r	knee_angle_r	knee_angle_r_beta	ankle_angle_r	subtalar_angle_r	mtp_angle_r	hip_flexion_l	hip_adduction_l	hip_rotation_l	knee_angle_l	knee_angle_l_beta	ankle_angle_l	subtalar_angle_l	mtp_angle_l	L5_S1_Flex_Ext	L5_S1_Lat_Bending	L5_S1_axial_rotation	L4_L5_Flex_Ext	L4_L5_Lat_Bending	L4_L5_axial_rotation	L3_L4_Flex_Ext	L3_L4_Lat_Bending	L3_L4_axial_rotation	L2_L3_Flex_Ext	L2_L3_Lat_Bending	L2_L3_axial_rotation	L1_L2_Flex_Ext	L1_L2_Lat_Bending	L1_L2_axial_rotation	L1_T12_Flex_Ext	L1_T12_Lat_Bending	L1_T12_axial_rotation	Abs_r3	Abs_r2	Abs_r1	Abs_t1	Abs_t2	neck_flexion	neck_bending	neck_rotation	arm_flex_r	arm_add_r	arm_rot_r	elbow_flex_r	pro_sup_r	wrist_flex_r	wrist_dev_r	arm_flex_l	arm_add_l	arm_rot_l	elbow_flex_l	pro_sup_l	wrist_flex_l	wrist_dev_l
5.975000	-5.514409	-7.273863	101.153975	0.295958	0.783557	0.860836	1.205180	0.029701	-0.714060	1.713204	0.029901	18.835611	-7.725508	0.000000	8.059776	0.964503	-2.802764	12.498404	0.218138	26.816080	9.810046	0.000000	0.313185	0.121409	-2.105625	0.581616	0.161475	-2.237227	0.514532	0.295195	-2.237227	0.357939	0.295195	-1.842422	0.290824	0.247578	-1.710820	0.178954	0.188063	-1.579219	2.237049	1.373407	-11.710855	0.000000	0.000000	15.637302	0.617448	3.033659	15.735114	-1.636477	68.724804	32.155840	4.140492	1.968839	13.476551	13.427167	-6.640894	55.503381	38.661558	79.851353	18.865344	-1.259709
6.000000	-5.524578	-7.290245	101.103725	0.296134	0.783501	0.860796	1.233053	0.007158	-0.452421	1.707572	0.029803	18.773328	-7.964000	0.000000	8.058482	0.963024	-2.868438	12.480787	0.217831	26.810076	9.836144	0.000000	0.311642	0.121190	-2.100596	0.578751	0.161182	-2.231884	0.511997	0.294661	-2.231884	0.356176	0.294661	-1.838022	0.289391	0.247130	-1.706734	0.178072	0.187723	-1.575447	2.226028	1.370922	-11.682886	0.000000	0.000000	15.811511	0.613178	3.136480	15.766379	-1.636461	68.789545	32.091086	4.266820	2.170559	13.256979	13.379722	-6.676403	55.442827	38.733986	80.312784	18.794102	-1.325351
6.025000	-5.519212	-7.300000	101.102991	0.296258	0.783489	0.860696	1.247450	0.005049	-0.272529	1.684167	0.029394	18.698444	-8.162737	0.000000	8.056133	0.948122	-2.899315	12.464879	0.217553	26.797614	9.876721	0.000000	0.309675	0.123221	-2.105165	0.575098	0.163884	-2.236737	0.508765	0.299600	-2.236737	0.353928	0.299600	-1.842019	0.287564	0.251273	-1.710446	0.176948	0.190870	-1.578873	2.211979	1.393903	-11.708294	0.000000	0.000000	15.949807	0.582351	3.278222	15.794890	-1.649265	68.877801	32.047387	4.399204	2.390454	13.095032	13.313278	-6.712850	55.364907	38.844955	80.894097	18.649749	-1.412425
6.050000	-5.500664	-7.304021	101.098776	0.296401	0.783509	0.860576	1.258694	0.021621	-0.048276	1.646007	0.028728	18.578167	-8.435953	0.000000	8.045240	0.916173	-2.946032	12.439320	0.217107	26.783287	9.938381	0.000000	0.306586	0.127324	-2.110158	0.569360	0.169341	-2.242043	0.503690	0.309576	-2.242043	0.350397	0.309576	-1.846388	0.284696	0.259640	-1.714503	0.175183	0.197225	-1.582618	2.189911	1.440317	-11.736064	0.000000	0.000000	16.051432	0.534114	3.445896	15.822865	-1.669513	68.950202	32.028426	4.519000	2.578730	12.983725	13.244869	-6.742514	55.269390	38.967489	81.495116	18.469658	-1.518299
6.075000	-5.463618	-7.308900	101.117945	0.296519	0.783554	0.860473	1.280763	0.057509	0.017266	1.610214	0.028104	18.478784	-8.526650	0.000000	8.047126	0.862335	-3.021630	12.424427	0.216847	26.777789	10.066345	0.000000	0.304024	0.133557	-2.120770	0.564604	0.177631	-2.253318	0.499482	0.324731	-2.253318	0.347470	0.324731	-1.855673	0.282317	0.272349	-1.723125	0.173720	0.206880	-1.590577	2.171616	1.510824	-11.795085	0.000000	0.000000	16.113449	0.479992	3.618774	15.842293	-1.685685	68.950000	32.016992	4.628857	2.723494	12.923364	13.181120	-6.767312	55.181066	39.099176	82.029690	18.200163	-1.643060
6.100000	-5.417693	-7.317294	101.131690	0.296620	0.783594	0.860364	1.302201	0.107307	0.265421	1.550699	0.027065	18.272928	-8.904255	0.000000	8.051134	0.804951	-3.061599	12.402292	0.216461	26.776947	10.148789	0.000000	0.302972	0.140597	-2.132988	0.562650	0.186994	-2.266300	0.497753	0.341847	-2.266300	0.346267	0.341847	-1.866365	0.281340	0.286705	-1.733053	0.173118	0.217784	-1.599741	2.164101	1.590459	-11.863041	0.000000	0.000000	16.144325	0.431554	3.776689	15.869581	-1.708383	68.971280	32.031575	4.695159	2.824884	12.806840	13.102393	-6.776221	55.016495	39.237908	82.371936	17.935898	-1.659507
6.125000	-5.355760	-7.330926	101.160335	0.296668	0.783625	0.860273	1.335438	0.171458	0.417793	1.495660	0.026104	18.075410	-9.177715	0.000000	8.069258	0.735798	-3.084690	12.386317	0.216182	26.792630	10.232526	0.000000	0.303757	0.148842	-2.150685	0.564107	0.197960	-2.285102	0.499043	0.361895	-2.285102	0.347164	0.361895	-1.881849	0.282069	0.303519	-1.747431	0.173567	0.230557	-1.613013	2.169707	1.683735	-11.961463	0.000000	0.000000	16.153340	0.397123	3.909456	15.895049	-1.731030	68.954934	32.072599	4.729248	2.842114	12.674197	13.014339	-6.766538	54.786519	39.365469	82.496804	17.700431	-1.611772
6.150000	-5.284370	-7.348926	101.172349	0.296686	0.783641	0.860183	1.370709	0.246975	0.709027	1.428811	0.024937	17.807400	-9.651298	0.000000	8.089276	0.666511	-3.051083	12.360894	0.215738	26.818527	10.226264	0.000000	0.305688	0.157695	-2.169537	0.567692	0.209734	-2.305133	0.502214	0.383420	-2.305133	0.349370	0.383420	-1.898345	0.283861	0.321572	-1.762749	0.174670	0.244270	-1.627153	2.183496	1.783877	-12.066313	0.000000	0.000000	16.151236	0.387803	4.023661	15.930644	-1.755952	68.958750	32.130461	4.744647	2.820920	12.478201	12.894652	-6.740125	54.430651	39.513064	82.389970	17.483439	-1.411948
6.175000	-5.208070	-7.375124	101.168084	0.296672	0.783631	0.860106	1.416583	0.324777	1.000008	1.369454	0.023901	17.543180	-10.110723	0.000000	8.113449	0.606101	-2.925278	12.322608	0.215070	26.845568	10.079905	0.000000	0.308779	0.166577	-2.188765	0.573433	0.221547	-2.325563	0.507293	0.405015	-2.325563	0.352903	0.405015	-1.915170	0.286732	0.339683	-1.778372	0.176436	0.258027	-1.641574	2.205576	1.884350	-12.173255	0.000000	0.000000	16.144200	0.406569	4.122646	15.970790	-1.786772	68.947266	32.217754	4.736498	2.734647	12.278916	12.760366	-6.702708	54.006382	39.667349	82.042790	17.294949	-1.121313
6.200000	-5.135542	-7.407146	101.138683	0.296669	0.783588	0.860042	1.468887	0.398878	1.322300	1.321407	0.023063	17.288194	-10.588442	0.000000	8.140198	0.554801	-2.767029	12.279537	0.214318	26.880016	9.860011	0.000000	0.312072	0.174304	-2.207338	0.579548	0.231824	-2.345297	0.512703	0.423803	-2.345297	0.356667	0.423803	-1.931421	0.289790	0.355441	-1.793462	0.178318	0.269997	-1.655504	2.229097	1.971762	-12.276552	0.000000	0.000000	16.140348	0.466360	4.222779	16.020404	-1.817026	68.941135	32.326863	4.724952	2.597905	12.073784	12.592080	-6.659087	53.451087	39.849147	81.560624	17.132657	-0.714163
6.225000	-5.081728	-7.438745	101.064518	0.296736	0.783514	0.859968	1.522745	0.454778	1.639521	1.297527	0.022646	17.078829	-10.999974	0.000000	8.153107	0.519041	-2.628362	12.222971	0.213331	26.921369	9.613198	0.000000	0.314926	0.178973	-2.220163	0.584849	0.238034	-2.358924	0.517392	0.435154	-2.358924	0.359929	0.435154	-1.942643	0.292440	0.364961	-1.803883	0.179949	0.277229	-1.665122	2.249485	2.024575	-12.347882	0.000000	0.000000	16.129547	0.569595	4.309293	16.068801	-1.832845	68.904098	32.432552	4.735861	2.448942	11.895642	12.422217	-6.632623	52.898800	40.057068	80.868986	16.980019	-0.216531
6.250000	-5.038866	-7.463951	100.970055	0.296828	0.783421	0.859895	1.567199	0.501188	1.959129	1.286178	0.022448	16.904182	-11.386022	0.000000	8.156498	0.491994	-2.492569	12.168949	0.212388	26.966773	9.346848	0.000000	0.316943	0.182016	-2.231218	0.588594	0.242081	-2.370670	0.520705	0.442554	-2.370670	0.362234	0.442554	-1.952316	0.294313	0.371167	-1.812865	0.181101	0.281943	-1.673414	2.263890	2.059002	-12.409367	0.000000	0.000000	16.104951	0.692077	4.396699	16.128076	-1.849868	68.893317	32.537348	4.780550	2.325913	11.704134	12.253488	-6.611048	52.347539	40.262015	80.161844	16.845545	0.242508
6.275000	-5.015773	-7.483441	100.857855	0.296958	0.783313	0.859811	1.604982	0.527149	2.210492	1.294295	0.022590	16.792248	-11.644270	0.000000	8.147640	0.479351	-2.392916	12.115735	0.211459	27.011857	9.107682	0.000000	0.318463	0.182563	-2.243703	0.591417	0.242808	-2.383934	0.523203	0.443883	-2.383934	0.363971	0.443883	-1.963240	0.295725	0.372282	-1.823008	0.181970	0.282790	-1.682777	2.274748	2.065185	-12.478800	0.000000	0.000000	16.059698	0.839519	4.514952	16.214052	-1.857034	68.979740	32.634171	4.801769	2.181531	11.481336	12.072030	-6.603611	51.772085	40.471418	79.499286	16.753193	0.656965
6.300000	-5.020999	-7.496166	100.732440	0.297116	0.783195	0.859693	1.627218	0.526170	2.438283	1.308894	0.022845	16.731739	-11.841257	0.000000	8.118698	0.495032	-2.280141	12.053104	0.210366	27.039292	8.836393	0.000000	0.319308	0.179849	-2.255043	0.592986	0.239199	-2.395984	0.524591	0.437284	-2.395984	0.364937	0.437284	-1.973163	0.296509	0.366748	-1.832223	0.182452	0.278586	-1.691283	2.280783	2.034486	-12.541875	0.000000	0.000000	16.005101	0.998986	4.653244	16.288717	-1.842868	69.011427	32.695176	4.886457	2.086567	11.305919	11.885215	-6.611619	51.200098	40.678149	78.879153	16.706371	1.037252
6.325000	-5.053311	-7.504708	100.598198	0.297303	0.783066	0.859526	1.632310	0.500841	2.729236	1.320756	0.023052	16.684976	-12.108131	0.000000	8.074331	0.531764	-2.212943	11.987151	0.209215	27.054274	8.614739	0.000000	0.319858	0.173903	-2.267263	0.594007	0.231290	-2.408967	0.525494	0.422827	-2.408967	0.365565	0.422827	-1.983855	0.297020	0.354622	-1.842151	0.182767	0.269375	-1.700447	2.284710	1.967220	-12.609834	0.000000	0.000000	15.952582	1.175449	4.813082	16.383848	-1.808908	69.142559	32.713355	4.909475	2.056770	11.116253	11.685231	-6.635766	50.616110	40.875382	78.385728	16.704730	1.357953
6.350000	-5.092865	-7.498983	100.472530	0.297467	0.782948	0.859308	1.611514	0.469195	2.953967	1.329800	0.023209	16.688178	-12.267848	0.000000	8.009984	0.572951	-2.157439	11.921792	0.208075	27.063188	8.414003	0.000000	0.318456	0.168002	-2.280466	0.591405	0.223443	-2.422995	0.523192	0.408481	-2.422995	0.363964	0.408481	-1.995408	0.295719	0.342590	-1.852879	0.181966	0.260235	-1.710350	2.274702	1.900475	-12.683269	0.000000	0.000000	15.910108	1.341794	5.020406	16.463331	-1.772923	69.235967	32.718433	5.021517	2.046696	10.916954	11.493198	-6.667861	50.104117	41.062994	77.877601	16.659244	1.684878
